PathFileType	4	(X/Y/Z)	Patient4_TMGait_0pt4_01_left_24.trc.trc
DataRate	CameraRate	NumFrames	NumMarkers	Units	OrigDataRate	OrigDataStartFrame	OrigNumFrames
76.923076923077	76.923076923077	4	33	mm	76.923076923077	89	       141
Frame#	Time	Sacral			L.Shoulder			Chest			R.Shoulder			Neck			R.ASIS			L.ASIS			R.Thigh.Superior			R.Thigh.Lateral			R.Thigh.Inferior			R.Patella			L.Thigh.Superior			L.Thigh.Lateral			L.Thigh.Inferior			L.Patella			L.Shank.Superior			L.Shank.Lateral			L.Shank.Inferior			R.Shank.Superior			R.Shank.Lateral			R.Shank.Inferior			R.Heel			R.Midfoot.Superior			R.Midfoot.Lateral			R.Toe			L.Heel			L.Midfoot.Lateral			L.Midfoot.Superior			L.Toe			L.Elbow			L.Wrist			R.Elbow			R.Wrist			
		X1	Y1	Z1	X2	Y2	Z2	X3	Y3	Z3	X4	Y4	Z4	X5	Y5	Z5	X6	Y6	Z6	X7	Y7	Z7	X8	Y8	Z8	X9	Y9	Z9	X10	Y10	Z10	X11	Y11	Z11	X12	Y12	Z12	X13	Y13	Z13	X14	Y14	Z14	X15	Y15	Z15	X16	Y16	Z16	X17	Y17	Z17	X18	Y18	Z18	X19	Y19	Z19	X20	Y20	Z20	X21	Y21	Z21	X22	Y22	Z22	X23	Y23	Z23	X24	Y24	Z24	X25	Y25	Z25	X26	Y26	Z26	X27	Y27	Z27	X28	Y28	Z28	X29	Y29	Z29	X30	Y30	Z30	X31	Y31	Z31	X32	Y32	Z32	X33	Y33	Z33	

89	30.074000000000	834.029238441008	1000.743140069947	471.628442806409	998.942146983109	1429.576676117036	277.095794148395	1098.737144575110	1372.940941557155	444.378419701861	1004.419243517040	1452.596354599622	610.261250897706	984.154540010245	1497.782399290286	430.209913643167	1064.647935048214	946.973084451983	595.240938418860	1053.500433741362	968.560480402354	320.534153052383	1116.488166239978	745.858367877823	563.686012943181	1039.863065259788	633.223088628033	624.959804931856	1120.210498930699	583.968408224991	545.343132681701	1125.305870759455	495.362356393978	551.379359367468	1092.966991666060	747.325261467902	341.638747903589	1001.987518796515	635.414774146575	272.843691425348	1085.593247313534	549.588326006381	330.088206082833	1079.200078864846	467.441016890572	326.204078976952	1019.519116037032	407.124864529007	319.458959184206	888.597495370562	341.164917278783	270.286661221076	895.958447069725	211.949249499584	327.183846880131	1096.314390435640	406.178456718071	560.237161756412	1026.836551131318	305.005599193708	627.598168800913	1063.823982081230	207.933879186210	564.917579737855	927.276465419969	43.691389388726	546.764199863169	1099.985956917758	97.508787896315	573.912571706140	1013.815925397260	37.687833538533	617.689174885120	1221.310705740543	44.394407707453	597.698768846776	720.058864298303	108.977940428954	364.176921831145	788.477507346421	73.326452092640	288.668825167530	886.757575010003	108.546047612545	311.113272313507	989.388968992688	35.217253909939	294.197845251007	998.950607190599	1080.229505016498	156.839707509117	1164.940434754826	875.372567227735	149.714484868423	943.468869233273	1122.145080443364	754.028981654841	1068.396819220411	892.804451951943	763.231609903411	
90	30.087000000000	833.853712914086	1000.797496890231	475.283853049269	998.079829350295	1429.462665383275	280.002368513113	1099.019992071689	1372.712476963658	446.592906351929	1005.997265232006	1452.409240340068	613.125966473306	984.466349808299	1497.646082612886	433.267894561940	1065.194255189612	946.886101784000	597.699680453498	1052.523097943880	968.185796159285	323.176621529043	1115.426809251755	745.257126277546	566.007604718782	1037.956292329869	633.085288352679	627.265484487447	1117.740316725191	583.389753079531	547.450113468102	1121.951813309369	494.752864246368	553.301629212216	1096.973108665647	749.152331953760	344.611095263402	1010.886903625635	635.332731663881	274.517000276235	1096.928206483017	551.250637701062	332.012085956662	1091.638334964453	467.893584343581	327.084532013186	1030.040897549099	407.653384888842	320.265190685548	897.014412082446	346.162012413309	271.032464995441	900.430653762044	216.693887739930	327.195906352082	1092.719917033830	405.703799494278	561.863511161802	1022.919531676006	304.552667370365	628.839022875127	1059.364530832927	207.578223808515	565.611389956652	922.050326331567	43.683055099435	546.875951570327	1094.845716220403	97.342835183038	574.155964745150	1008.579430047663	37.625037771514	617.826308559062	1216.170558067594	43.938933388789	597.859978053705	720.876089780612	122.214687739017	363.877248680538	787.128812778442	82.479849618014	288.529028752702	887.194490460348	112.239464675275	310.622783392291	984.463059083552	34.300137953810	294.243905619583	994.809383893146	1079.764678646009	160.635384823574	1155.769911155344	870.984549769043	151.138209859390	950.045200571628	1121.485738726136	758.322500100476	1084.271906771830	897.553647380267	762.561356104252	
91	30.100000000000	833.515774473848	1000.691905624979	478.895156505326	997.038768331773	1429.198273824655	282.821589620656	1099.206423657820	1372.280482680726	448.644239247069	1007.613435250559	1452.031270400916	615.894020178341	984.735548974487	1497.362895882555	436.252774296174	1065.584808158748	946.664966070591	599.990286746570	1051.298935745604	967.609428538713	325.636170339108	1114.314464112773	744.641566582028	568.157763707756	1036.208088948524	632.917218959575	629.569033626029	1115.338986094098	582.797065454864	549.476041568500	1118.707232637246	494.126151613969	555.254487292065	1100.928830666727	751.220522434554	347.491982345399	1020.050067991370	635.529371379513	276.016192556640	1108.435795994942	553.400774628259	333.833200411693	1104.420780671174	468.924571804391	328.050841452114	1041.118165988337	408.569351722780	321.122682263085	906.158882264326	351.534830608491	271.734569333477	905.565144295558	221.990424066662	327.389456800228	1089.225069476050	405.185488606886	563.509574720236	1019.091612374317	304.065261239804	630.107092194938	1054.959893545495	207.188362567822	566.336457899272	916.846119852116	43.667785243323	547.019331035376	1089.719436142904	97.182287498117	574.429084566647	1003.363251566827	37.562925918415	617.994978656821	1211.047530257064	43.504634155148	598.043305040486	722.665897673875	136.342854349598	363.807050085332	786.563003512488	92.676564415020	288.542508948557	888.244284576113	116.710072852557	310.366174627296	979.895805646386	33.346025072030	294.279129945655	990.479113113123	1079.164818355303	164.384384274364	1146.161263350409	866.519940354458	152.501836318483	956.884846050335	1120.711217629103	762.532137814628	1100.091557854898	902.654520888385	761.727261321511	
92	30.113000000000	833.015097473007	1000.462945687167	482.433775807157	995.848786850817	1428.824681052001	285.529219852800	1099.302233182518	1371.677177176391	450.514434435200	1009.260306188937	1451.491549339964	618.540142765787	984.980116156752	1496.972512955148	439.136629536045	1065.804604457744	946.345151494448	602.101533917559	1049.846721982733	966.881643418316	327.894056219788	1113.158795439799	744.030532394149	570.177606530198	1034.551655222150	632.717841040485	631.821282648245	1112.993908708098	582.199737449866	551.414730095751	1115.554041835371	493.493845559386	557.175125933438	1104.727135978178	753.562466269641	350.237408221740	1029.205523191208	636.079613841701	277.350073061341	1119.832398542575	556.092434724521	335.506718106856	1117.282393701682	470.595941936142	329.054296900481	1052.496308224699	409.937722752445	322.013257276789	915.789876442108	357.219107852649	272.427909300379	911.262200480785	227.738819609836	327.783107474931	1085.812373855664	404.638536832982	565.119778327049	1015.328723321450	303.564912391264	631.351356181893	1050.598250155260	206.780227799927	567.062196821647	911.662675237841	43.651411559476	547.189255508229	1084.604314672900	97.034358251832	574.718376233063	998.165748197493	37.506967066686	618.187035789332	1205.935563073042	43.105503267915	598.243959319494	725.429502642925	150.874431664024	364.029970393457	786.886623201229	103.586033254269	288.750669035071	889.961966190563	121.889309936693	310.363795312874	975.973071349981	32.463449799301	294.284583964868	985.962520450867	1078.461211301978	168.084793989127	1136.121673358586	862.031817915659	153.827366396162	964.036808771802	1119.832095753448	766.593254319129	1115.815860199273	908.053676887564	760.695991359713	
